# xmcd
#
# Track frame offsets:
#	150
#	20435
#	35619
#	48507
#	58673
#	74374
#	87334
#	101928
#	116004
#	132505
#	145450
#	158003
#	172341
#	185405
#	200090
#	215846
#	232689
#	250383
#	260573
#	276156
#	291215
#
# Disc length: 4059 seconds
#
# Revision: 1
# Processed by: cddbd v1.5.2PL0 Copyright (c) Steve Scherf et al.
# Submitted via: audiograbber 1.83.01
#
DISCID=530fd915
DTITLE=Various Artist - Skibox 13
DYEAR=1900
DGENRE=
TTITLE0=Alex and Patty Brard - Carnavals Polonaise
TTITLE1=Rj Feat Pittbull - U Know It Ain't Love
TTITLE2=Lawineboys - Joost
TTITLE3=Feestteam - Goeie Morgen (Zonder Zorgen)
TTITLE4=Zware Jongens - Bonnie Hoep
TTITLE5=Braboneger - Gewoon Betalen
TTITLE6=Arjon - Zakka Zakka
TTITLE7=Dirk Meeldijk - Alle Mensen Zijn Gelijk
TTITLE8=Tim Schalkx - Laila
TTITLE9=Partyjocks and Dj Ronny - Op Een Dag
TTITLE10=Jettie Palettie - Sleetje Rijden
TTITLE11=Stef Ekkel - Op De Lange Latten
TTITLE12=Jeronimo - I Want You Baby
TTITLE13=Markus Becker feat Ko and Ko - Helikopter
TTITLE14=Dj Maurice - Man I Feel Like A Woman
TTITLE15=Vengaboys - We Like To Party
TTITLE16=Dj Mike van Dijk - Liefde Voor Muziek
TTITLE17=One two Trio - Broodje Worst
TTITLE18=Ronnie van Bemmel - Ay Ay Ay
TTITLE19=Starsplash - Compterliebe
TTITLE20=Dj Maurice and kleintje Pils - Alte Dessaur (zakken!)
EXTD=
EXTT0=
EXTT1=
EXTT2=
EXTT3=
EXTT4=
EXTT5=
EXTT6=
EXTT7=
EXTT8=
EXTT9=
EXTT10=
EXTT11=
EXTT12=
EXTT13=
EXTT14=
EXTT15=
EXTT16=
EXTT17=
EXTT18=
EXTT19=
EXTT20=
PLAYORDER=
